<svg id="svg" version="1.1" width="1788" height="126" xmlns="http://www.w3.org/2000/svg" xmlns:xlink="http://www.w3.org/1999/xlink" ><g id="svgg"><path id="path0" d="M200.839 0.424 C 200.614 0.652,200.447 1.159,200.447 1.617 C 200.447 2.118,200.323 2.461,200.112 2.542 C 199.927 2.613,199.776 2.915,199.776 3.213 C 199.776 3.511,199.625 3.813,199.441 3.884 C 199.256 3.955,199.105 4.268,199.105 4.579 C 199.105 4.933,198.979 5.145,198.770 5.145 C 198.546 5.145,198.434 5.369,198.434 5.817 C 198.434 6.434,198.372 6.488,197.651 6.488 C 197.104 6.488,196.868 6.386,196.868 6.152 C 196.868 5.968,196.717 5.817,196.532 5.817 C 196.348 5.817,196.197 5.666,196.197 5.481 C 196.197 5.296,196.046 5.145,195.861 5.145 C 195.677 5.145,195.526 4.994,195.526 4.810 C 195.526 4.625,195.375 4.474,195.190 4.474 C 195.006 4.474,194.855 4.323,194.855 4.139 C 194.855 3.954,194.704 3.803,194.519 3.803 C 194.334 3.803,194.183 3.652,194.183 3.468 C 194.183 3.259,193.972 3.132,193.624 3.132 C 193.077 3.132,193.065 3.169,193.065 4.810 C 193.065 6.152,192.998 6.488,192.729 6.488 C 192.468 6.488,192.394 6.786,192.394 7.830 L 192.394 9.172 191.611 9.172 C 191.064 9.172,190.828 9.071,190.828 8.837 C 190.828 8.613,190.604 8.501,190.157 8.501 C 189.709 8.501,189.485 8.389,189.485 8.166 C 189.485 7.942,189.262 7.830,188.814 7.830 C 188.367 7.830,188.143 7.718,188.143 7.494 C 188.143 7.252,187.895 7.159,187.248 7.159 L 186.353 7.159 186.353 8.054 C 186.353 8.700,186.447 8.949,186.689 8.949 C 186.938 8.949,187.025 9.210,187.025 9.955 C 187.025 10.701,187.112 10.962,187.360 10.962 C 187.618 10.962,187.696 11.249,187.696 12.199 C 187.696 13.093,187.789 13.473,188.031 13.566 C 188.238 13.645,188.367 13.985,188.367 14.453 L 188.367 15.213 185.011 15.213 C 182.177 15.213,181.655 15.265,181.655 15.548 C 181.655 15.809,181.357 15.884,180.313 15.884 C 179.269 15.884,178.971 15.958,178.971 16.219 C 178.971 16.517,168.879 16.555,89.485 16.555 L 0.000 16.555 0.000 17.114 L 0.000 17.673 90.492 17.673 C 170.781 17.673,180.984 17.711,180.984 18.009 C 180.984 18.194,181.125 18.345,181.296 18.345 C 181.467 18.345,181.666 18.496,181.736 18.680 C 181.807 18.865,182.120 19.016,182.431 19.016 C 182.786 19.016,182.998 19.141,182.998 19.351 C 182.998 19.536,183.149 19.687,183.333 19.687 C 183.518 19.687,183.669 19.838,183.669 20.022 C 183.669 20.246,183.893 20.358,184.340 20.358 C 184.787 20.358,185.011 20.470,185.011 20.694 C 185.011 20.878,185.151 21.029,185.323 21.029 C 185.494 21.029,185.692 21.180,185.763 21.365 C 185.848 21.586,186.199 21.700,186.794 21.700 C 187.446 21.700,187.696 21.793,187.696 22.036 C 187.696 22.257,187.917 22.371,188.343 22.371 C 188.712 22.371,189.046 22.516,189.119 22.707 C 189.219 22.967,189.654 23.043,191.044 23.043 C 193.041 23.043,193.736 23.418,193.736 24.497 C 193.736 24.826,193.864 25.056,194.048 25.056 C 194.219 25.056,194.417 25.207,194.488 25.391 C 194.572 25.611,194.921 25.727,195.495 25.727 C 196.069 25.727,196.417 25.843,196.501 26.063 C 196.594 26.305,196.974 26.398,197.868 26.398 C 198.819 26.398,199.105 26.476,199.105 26.734 C 199.105 26.957,199.329 27.069,199.776 27.069 C 200.343 27.069,200.447 27.156,200.447 27.629 C 200.447 28.157,200.515 28.188,201.678 28.188 C 202.841 28.188,202.908 28.157,202.908 27.629 C 202.908 27.156,203.013 27.069,203.579 27.069 C 204.027 27.069,204.251 26.957,204.251 26.734 C 204.251 26.485,204.512 26.398,205.257 26.398 C 206.003 26.398,206.264 26.311,206.264 26.063 C 206.264 25.805,206.551 25.727,207.501 25.727 C 208.395 25.727,208.775 25.634,208.868 25.391 C 208.938 25.207,209.137 25.056,209.308 25.056 C 209.479 25.056,209.620 24.905,209.620 24.720 C 209.620 24.472,209.881 24.385,210.626 24.385 C 211.372 24.385,211.633 24.298,211.633 24.049 C 211.633 23.781,211.969 23.714,213.311 23.714 C 214.653 23.714,214.989 23.647,214.989 23.378 C 214.989 23.154,215.213 23.043,215.660 23.043 C 216.107 23.043,216.331 22.931,216.331 22.707 C 216.331 22.522,216.482 22.371,216.667 22.371 C 216.851 22.371,217.002 22.220,217.002 22.036 C 217.002 21.851,217.153 21.700,217.338 21.700 C 217.522 21.700,217.673 21.549,217.673 21.365 C 217.673 21.141,217.897 21.029,218.345 21.029 C 218.792 21.029,219.016 20.917,219.016 20.694 C 219.016 20.509,219.167 20.358,219.351 20.358 C 219.536 20.358,219.687 20.207,219.687 20.022 C 219.687 19.838,219.838 19.687,220.022 19.687 C 220.207 19.687,220.358 19.536,220.358 19.351 C 220.358 19.141,220.570 19.016,220.924 19.016 C 221.236 19.016,221.548 18.865,221.619 18.680 C 221.690 18.496,221.888 18.345,222.060 18.345 C 222.231 18.345,222.371 18.194,222.371 18.009 C 222.371 17.711,232.389 17.673,311.186 17.673 L 400.000 17.673 400.000 17.114 L 400.000 16.555 311.814 16.555 C 237.553 16.555,223.694 16.507,224.043 16.252 C 225.173 15.425,224.391 15.213,220.197 15.206 C 217.385 15.201,216.334 15.132,216.611 14.971 C 216.879 14.815,217.002 14.465,217.002 13.859 C 217.002 13.223,217.096 12.975,217.338 12.975 C 217.615 12.975,217.673 12.565,217.673 10.626 C 217.673 8.688,217.732 8.277,218.009 8.277 C 218.218 8.277,218.345 8.066,218.345 7.718 C 218.345 7.041,216.215 6.841,215.965 7.494 C 215.894 7.679,215.592 7.830,215.293 7.830 C 214.995 7.830,214.693 7.981,214.622 8.166 C 214.550 8.354,214.217 8.501,213.863 8.501 C 213.450 8.501,213.197 8.637,213.130 8.893 C 213.032 9.265,213.026 9.265,213.001 8.893 C 212.987 8.677,212.824 8.501,212.640 8.501 C 212.379 8.501,212.304 8.203,212.304 7.159 C 212.304 6.115,212.230 5.817,211.969 5.817 C 211.745 5.817,211.633 5.593,211.633 5.145 C 211.633 4.698,211.521 4.474,211.298 4.474 C 211.074 4.474,210.962 4.251,210.962 3.803 C 210.962 3.236,210.875 3.132,210.403 3.132 C 210.055 3.132,209.843 3.259,209.843 3.468 C 209.843 3.652,209.692 3.803,209.508 3.803 C 209.323 3.803,209.172 3.954,209.172 4.139 C 209.172 4.323,209.021 4.474,208.837 4.474 C 208.652 4.474,208.497 4.600,208.492 4.754 C 208.486 4.908,208.184 5.281,207.821 5.582 C 207.439 5.899,207.159 6.349,207.159 6.645 L 207.159 7.159 206.711 6.711 C 206.465 6.465,206.264 6.012,206.264 5.705 C 206.264 5.357,206.137 5.145,205.928 5.145 C 205.744 5.145,205.593 4.994,205.593 4.810 C 205.593 4.625,205.442 4.474,205.257 4.474 C 205.073 4.474,204.922 4.323,204.922 4.139 C 204.922 3.954,204.771 3.803,204.586 3.803 C 204.362 3.803,204.251 3.579,204.251 3.132 C 204.251 2.685,204.139 2.461,203.915 2.461 C 203.730 2.461,203.579 2.310,203.579 2.125 C 203.579 1.941,203.428 1.790,203.244 1.790 C 203.020 1.790,202.908 1.566,202.908 1.119 C 202.908 0.671,202.796 0.447,202.573 0.447 C 202.388 0.447,202.237 0.347,202.237 0.224 C 202.237 -0.143,201.261 -0.004,200.839 0.424 M202.142 2.908 C 202.334 2.908,202.461 3.133,202.461 3.475 C 202.461 3.786,202.612 4.099,202.796 4.170 C 202.981 4.240,203.132 4.439,203.132 4.610 C 203.132 4.781,203.283 4.922,203.468 4.922 C 203.652 4.922,203.803 5.073,203.803 5.257 C 203.803 5.442,203.954 5.593,204.139 5.593 C 204.349 5.593,204.474 5.805,204.474 6.159 C 204.474 6.471,204.625 6.783,204.810 6.854 C 205.001 6.928,205.145 7.261,205.145 7.630 C 205.145 8.056,205.260 8.277,205.481 8.277 C 205.735 8.277,205.817 8.551,205.817 9.396 C 205.817 10.241,205.735 10.515,205.481 10.515 C 205.296 10.515,205.145 10.666,205.145 10.850 C 205.145 11.035,204.994 11.186,204.810 11.186 C 204.625 11.186,204.474 11.337,204.474 11.521 C 204.474 11.706,204.323 11.857,204.139 11.857 C 203.954 11.857,203.803 12.008,203.803 12.192 C 203.803 12.377,203.652 12.528,203.468 12.528 C 203.283 12.528,203.132 12.679,203.132 12.864 C 203.132 13.048,202.981 13.199,202.796 13.199 C 202.612 13.199,202.461 13.350,202.461 13.535 C 202.461 13.721,202.262 13.870,202.013 13.870 C 201.765 13.870,201.566 13.721,201.566 13.535 C 201.566 13.350,201.415 13.199,201.230 13.199 C 201.046 13.199,200.895 13.048,200.895 12.864 C 200.895 12.679,200.744 12.528,200.559 12.528 C 200.375 12.528,200.224 12.377,200.224 12.192 C 200.224 12.008,200.073 11.857,199.888 11.857 C 199.704 11.857,199.553 11.706,199.553 11.521 C 199.553 11.337,199.402 11.186,199.217 11.186 C 199.032 11.186,198.881 11.035,198.881 10.850 C 198.881 10.666,198.730 10.515,198.546 10.515 C 198.359 10.515,198.210 10.316,198.210 10.067 C 198.210 9.819,198.359 9.620,198.546 9.620 C 198.794 9.620,198.881 9.359,198.881 8.613 C 198.881 7.867,198.968 7.606,199.217 7.606 C 199.402 7.606,199.553 7.466,199.553 7.295 C 199.553 7.123,199.704 6.925,199.888 6.854 C 200.073 6.783,200.224 6.471,200.224 6.159 C 200.224 5.805,200.349 5.593,200.559 5.593 C 200.783 5.593,200.895 5.369,200.895 4.922 C 200.895 4.474,201.007 4.251,201.230 4.251 C 201.478 4.251,201.573 3.972,201.592 3.188 C 201.606 2.603,201.664 2.301,201.720 2.517 C 201.776 2.732,201.966 2.908,202.142 2.908 M194.759 6.264 C 194.935 6.264,195.078 6.415,195.078 6.600 C 195.078 6.784,195.229 6.935,195.414 6.935 C 195.598 6.935,195.749 7.086,195.749 7.271 C 195.749 7.455,195.850 7.606,195.973 7.606 C 196.436 7.606,197.092 8.524,197.092 9.172 C 197.092 9.807,197.043 9.843,196.190 9.843 C 195.172 9.843,194.737 10.383,195.378 10.851 C 195.684 11.075,195.749 11.542,195.749 13.503 L 195.749 15.884 195.302 15.436 C 195.056 15.190,194.855 14.888,194.855 14.765 C 194.855 14.642,194.704 14.541,194.519 14.541 C 194.309 14.541,194.183 14.329,194.183 13.975 C 194.183 13.664,194.032 13.351,193.848 13.280 C 193.578 13.177,193.512 12.677,193.512 10.738 C 193.512 8.800,193.578 8.300,193.848 8.197 C 194.088 8.104,194.191 7.700,194.209 6.774 C 194.224 6.063,194.281 5.657,194.338 5.872 C 194.394 6.088,194.584 6.264,194.759 6.264 M210.515 6.495 C 210.515 7.090,210.629 7.440,210.850 7.525 C 211.107 7.624,211.186 8.044,211.186 9.308 C 211.186 10.724,211.242 10.966,211.577 10.988 C 211.950 11.013,211.950 11.019,211.577 11.116 C 211.260 11.199,211.186 11.470,211.186 12.544 C 211.186 13.574,211.111 13.870,210.850 13.870 C 210.626 13.870,210.515 14.094,210.515 14.541 C 210.515 14.989,210.403 15.213,210.179 15.213 C 209.994 15.213,209.843 15.364,209.843 15.548 C 209.843 15.733,209.700 15.884,209.524 15.884 C 209.349 15.884,209.159 16.060,209.103 16.275 C 209.046 16.490,208.989 15.584,208.974 14.262 C 208.953 12.285,208.889 11.857,208.613 11.857 C 208.345 11.857,208.277 11.521,208.277 10.179 C 208.277 8.740,208.222 8.497,207.886 8.475 C 207.513 8.450,207.513 8.444,207.886 8.347 C 208.101 8.291,208.277 8.101,208.277 7.925 C 208.277 7.750,208.428 7.606,208.613 7.606 C 208.798 7.606,208.949 7.466,208.949 7.295 C 208.949 7.123,209.100 6.925,209.284 6.854 C 209.469 6.783,209.620 6.471,209.620 6.159 C 209.620 5.742,209.738 5.593,210.067 5.593 C 210.441 5.593,210.515 5.742,210.515 6.495 M216.555 10.067 C 216.555 10.912,216.473 11.186,216.219 11.186 C 215.971 11.186,215.884 11.447,215.884 12.192 C 215.884 12.938,215.797 13.199,215.548 13.199 C 215.324 13.199,215.213 13.423,215.213 13.870 C 215.213 14.318,215.101 14.541,214.877 14.541 C 214.692 14.541,214.541 14.692,214.541 14.877 C 214.541 15.062,214.390 15.213,214.206 15.213 C 214.021 15.213,213.870 15.364,213.870 15.548 C 213.870 15.772,213.647 15.884,213.199 15.884 C 212.752 15.884,212.528 15.996,212.528 16.219 C 212.528 16.429,212.316 16.555,211.962 16.555 C 211.650 16.555,211.337 16.706,211.267 16.890 C 211.196 17.075,210.922 17.214,210.658 17.200 C 210.280 17.180,210.262 17.152,210.570 17.072 C 210.786 17.015,210.962 16.826,210.962 16.650 C 210.962 16.475,211.113 16.331,211.298 16.331 C 211.482 16.331,211.633 16.191,211.633 16.019 C 211.633 15.848,211.784 15.650,211.969 15.579 C 212.188 15.495,212.304 15.146,212.304 14.572 C 212.304 13.998,212.420 13.650,212.640 13.566 C 212.894 13.468,212.975 13.056,212.975 11.864 L 212.975 10.291 213.877 10.291 C 214.473 10.291,214.823 10.177,214.908 9.955 C 214.981 9.764,215.315 9.620,215.684 9.620 C 216.110 9.620,216.331 9.505,216.331 9.284 C 216.331 9.100,216.381 8.949,216.443 8.949 C 216.504 8.949,216.555 9.452,216.555 10.067 M189.949 10.291 C 191.125 10.291,191.723 10.894,191.723 12.081 C 191.723 12.727,191.816 12.975,192.058 12.975 C 192.307 12.975,192.394 13.236,192.394 13.982 C 192.394 14.728,192.481 14.989,192.729 14.989 C 192.939 14.989,193.065 15.201,193.065 15.555 C 193.065 15.867,193.216 16.179,193.400 16.250 C 193.585 16.321,193.736 16.519,193.736 16.691 C 193.736 16.862,193.837 17.002,193.960 17.002 C 194.083 17.002,194.385 17.204,194.631 17.450 L 195.078 17.897 194.295 17.897 C 193.748 17.897,193.512 17.796,193.512 17.562 C 193.512 17.338,193.289 17.226,192.841 17.226 C 192.394 17.226,192.170 17.114,192.170 16.890 C 192.170 16.706,192.069 16.555,191.946 16.555 C 191.656 16.555,190.828 15.726,190.828 15.436 C 190.828 15.313,190.677 15.213,190.492 15.213 C 190.282 15.213,190.157 15.000,190.157 14.646 C 190.157 14.335,190.006 14.022,189.821 13.951 C 189.593 13.864,189.485 13.507,189.485 12.840 C 189.485 12.115,189.397 11.857,189.150 11.857 C 188.891 11.857,188.820 11.589,188.840 10.682 C 188.855 10.036,188.912 9.684,188.969 9.899 C 189.044 10.188,189.301 10.291,189.949 10.291 M207.506 14.241 C 207.973 14.421,207.963 16.555,207.494 16.555 C 207.246 16.555,207.159 16.816,207.159 17.562 C 207.159 18.307,207.072 18.568,206.823 18.568 C 206.639 18.568,206.488 18.719,206.488 18.904 C 206.488 19.088,206.337 19.239,206.152 19.239 C 205.968 19.239,205.817 19.390,205.817 19.575 C 205.817 19.785,205.604 19.911,205.250 19.911 C 204.939 19.911,204.626 20.062,204.555 20.246 C 204.484 20.431,204.211 20.570,203.947 20.556 C 203.569 20.535,203.550 20.508,203.859 20.427 C 204.402 20.286,204.456 16.555,203.915 16.555 C 203.691 16.555,203.579 16.331,203.579 15.884 C 203.579 15.404,203.468 15.205,203.188 15.187 C 202.815 15.162,202.815 15.156,203.188 15.058 C 203.403 15.002,203.579 14.812,203.579 14.637 C 203.579 14.461,203.730 14.318,203.915 14.318 C 204.100 14.318,204.251 14.167,204.251 13.982 C 204.251 13.798,204.402 13.647,204.586 13.647 C 204.771 13.647,204.922 13.496,204.922 13.311 C 204.922 13.126,205.073 12.975,205.257 12.975 C 205.442 12.975,205.593 12.824,205.593 12.640 C 205.593 12.430,205.805 12.304,206.159 12.304 C 206.488 12.304,206.793 12.140,206.886 11.913 C 206.985 11.673,207.073 12.023,207.114 12.819 C 207.160 13.698,207.286 14.157,207.506 14.241 M198.557 12.975 C 198.895 12.975,199.105 13.104,199.105 13.311 C 199.105 13.496,199.256 13.647,199.441 13.647 C 199.625 13.647,199.776 13.798,199.776 13.982 C 199.776 14.167,199.927 14.318,200.112 14.318 C 200.296 14.318,200.447 14.469,200.447 14.653 C 200.447 14.838,200.598 14.989,200.783 14.989 C 200.968 14.989,201.119 15.140,201.119 15.324 C 201.119 15.509,201.270 15.660,201.454 15.660 C 201.639 15.660,201.790 15.811,201.790 15.996 C 201.790 16.180,201.941 16.331,202.125 16.331 C 202.349 16.331,202.461 16.555,202.461 17.002 C 202.461 17.450,202.573 17.673,202.796 17.673 C 203.031 17.673,203.132 17.910,203.132 18.456 C 203.132 19.003,203.031 19.239,202.796 19.239 C 202.612 19.239,202.461 19.390,202.461 19.575 C 202.461 19.760,202.310 19.911,202.125 19.911 C 201.941 19.911,201.790 20.062,201.790 20.246 C 201.790 20.510,201.479 20.582,200.336 20.582 C 199.192 20.582,198.881 20.510,198.881 20.246 C 198.881 20.062,198.730 19.911,198.546 19.911 C 198.361 19.911,198.210 19.760,198.210 19.575 C 198.210 19.390,198.059 19.239,197.875 19.239 C 197.665 19.239,197.539 19.027,197.539 18.673 C 197.539 18.362,197.388 18.049,197.204 17.978 C 196.945 17.879,196.868 17.447,196.868 16.083 C 196.868 14.663,196.934 14.318,197.204 14.318 C 197.454 14.318,197.541 14.047,197.546 13.255 C 197.551 12.424,197.603 12.278,197.781 12.584 C 197.906 12.799,198.255 12.975,198.557 12.975 M184.732 17.156 C 183.998 17.348,184.232 18.345,185.011 18.345 C 185.459 18.345,185.682 18.456,185.682 18.680 C 185.682 18.904,185.906 19.016,186.353 19.016 C 186.801 19.016,187.025 19.128,187.025 19.351 C 187.025 19.575,187.248 19.687,187.696 19.687 C 188.143 19.687,188.367 19.799,188.367 20.022 C 188.367 20.246,188.591 20.358,189.038 20.358 C 189.485 20.358,189.709 20.470,189.709 20.694 C 189.709 20.914,189.930 21.029,190.356 21.029 C 190.718 21.029,191.059 21.173,191.129 21.357 C 191.226 21.608,191.791 21.701,193.558 21.757 L 195.861 21.830 193.345 21.877 C 191.236 21.916,190.828 21.870,190.828 21.588 C 190.828 21.340,190.567 21.253,189.821 21.253 C 189.075 21.253,188.814 21.166,188.814 20.917 C 188.814 20.694,188.591 20.582,188.143 20.582 C 187.696 20.582,187.472 20.470,187.472 20.246 C 187.472 20.022,187.248 19.911,186.801 19.911 C 186.353 19.911,186.130 19.799,186.130 19.575 C 186.130 19.390,185.990 19.239,185.818 19.239 C 185.647 19.239,185.449 19.088,185.378 18.904 C 185.307 18.719,184.994 18.568,184.683 18.568 C 184.328 18.568,184.116 18.443,184.116 18.233 C 184.116 18.048,183.976 17.897,183.805 17.897 C 183.633 17.897,183.438 17.753,183.370 17.578 C 183.303 17.402,182.965 17.216,182.619 17.164 C 182.274 17.112,182.696 17.066,183.557 17.062 C 184.418 17.058,184.947 17.100,184.732 17.156 M189.790 17.338 C 189.861 17.522,190.174 17.673,190.485 17.673 C 190.839 17.673,191.051 17.799,191.051 18.009 C 191.051 18.194,191.192 18.345,191.363 18.345 C 191.534 18.345,191.733 18.496,191.803 18.680 C 191.888 18.899,192.236 19.016,192.810 19.016 C 193.384 19.016,193.733 19.132,193.817 19.351 C 193.908 19.589,194.323 19.699,195.239 19.727 C 196.511 19.767,196.515 19.769,195.470 19.851 C 194.731 19.909,194.407 20.034,194.407 20.258 C 194.407 20.479,194.158 20.582,193.624 20.582 C 193.077 20.582,192.841 20.480,192.841 20.246 C 192.841 19.998,192.580 19.911,191.834 19.911 C 191.089 19.911,190.828 19.824,190.828 19.575 C 190.828 19.351,190.604 19.239,190.157 19.239 C 189.709 19.239,189.485 19.128,189.485 18.904 C 189.485 18.719,189.345 18.568,189.174 18.568 C 189.002 18.568,188.804 18.417,188.733 18.233 C 188.663 18.048,188.325 17.885,187.982 17.871 C 187.604 17.855,187.514 17.805,187.752 17.743 C 187.967 17.687,188.143 17.497,188.143 17.321 C 188.143 16.875,189.618 16.889,189.790 17.338 M214.869 17.673 C 215.032 17.673,215.220 17.817,215.287 17.993 C 215.355 18.169,215.693 18.355,216.038 18.407 C 216.639 18.497,216.635 18.503,215.940 18.535 C 215.457 18.557,215.213 18.681,215.213 18.904 C 215.213 19.088,215.062 19.239,214.877 19.239 C 214.692 19.239,214.541 19.390,214.541 19.575 C 214.541 19.799,214.318 19.911,213.870 19.911 C 213.423 19.911,213.199 20.022,213.199 20.246 C 213.199 20.524,212.777 20.582,210.738 20.582 C 208.756 20.582,208.277 20.520,208.277 20.262 C 208.277 20.087,208.101 19.897,207.886 19.841 C 207.671 19.785,207.973 19.727,208.557 19.713 C 209.341 19.694,209.620 19.599,209.620 19.351 C 209.620 19.103,209.881 19.016,210.626 19.016 C 211.372 19.016,211.633 18.929,211.633 18.680 C 211.633 18.456,211.857 18.345,212.304 18.345 C 212.752 18.345,212.975 18.233,212.975 18.009 C 212.975 17.799,213.187 17.673,213.542 17.673 C 213.873 17.673,214.172 17.511,214.262 17.282 C 214.409 16.909,214.420 16.909,214.495 17.282 C 214.539 17.497,214.707 17.673,214.869 17.673 M220.302 17.156 C 220.087 17.213,219.899 17.428,219.885 17.634 C 219.861 17.978,219.850 17.978,219.758 17.628 C 219.681 17.332,219.347 17.229,218.274 17.167 C 217.157 17.104,217.257 17.085,218.792 17.071 C 219.838 17.062,220.517 17.100,220.302 17.156 M218.960 18.499 C 218.744 18.555,218.568 18.745,218.568 18.920 C 218.568 19.110,218.364 19.229,218.065 19.213 C 217.686 19.194,217.658 19.162,217.953 19.085 C 218.168 19.029,218.345 18.839,218.345 18.664 C 218.345 18.474,218.549 18.355,218.848 18.370 C 219.227 18.390,219.254 18.422,218.960 18.499 M216.275 20.512 C 216.060 20.568,215.884 20.758,215.884 20.934 C 215.884 21.126,215.659 21.253,215.317 21.253 C 215.006 21.253,214.693 21.404,214.622 21.588 C 214.549 21.780,214.215 21.924,213.846 21.924 C 213.420 21.924,213.199 22.039,213.199 22.260 C 213.199 22.537,212.779 22.595,210.762 22.595 C 208.802 22.595,208.300 22.529,208.197 22.260 C 208.112 22.038,207.761 21.924,207.166 21.924 C 206.372 21.924,206.267 21.864,206.290 21.421 C 206.309 21.042,206.341 21.014,206.418 21.309 C 206.563 21.861,214.318 21.916,214.318 21.365 C 214.318 21.141,214.541 21.029,214.989 21.029 C 215.436 21.029,215.660 20.917,215.660 20.694 C 215.660 20.487,215.853 20.368,216.163 20.384 C 216.542 20.403,216.570 20.435,216.275 20.512 M199.776 22.036 C 199.776 22.278,200.025 22.371,200.671 22.371 C 201.317 22.371,201.566 22.278,201.566 22.036 C 201.566 21.772,201.877 21.700,203.020 21.700 C 204.164 21.700,204.474 21.772,204.474 22.036 C 204.474 22.220,204.625 22.371,204.810 22.371 C 204.994 22.371,205.145 22.522,205.145 22.707 C 205.145 22.931,205.369 23.043,205.817 23.043 C 206.264 23.043,206.488 23.154,206.488 23.378 C 206.488 23.602,206.729 23.722,207.215 23.740 C 207.615 23.754,207.766 23.812,207.550 23.868 C 207.335 23.924,207.159 24.114,207.159 24.289 C 207.159 24.527,206.844 24.609,205.921 24.609 C 205.028 24.609,204.648 24.702,204.555 24.944 C 204.471 25.163,204.122 25.280,203.548 25.280 C 202.974 25.280,202.626 25.396,202.542 25.615 C 202.471 25.800,202.273 25.951,202.101 25.951 C 201.930 25.951,201.778 26.127,201.764 26.342 C 201.739 26.715,201.733 26.715,201.635 26.342 C 201.579 26.127,201.400 25.951,201.238 25.951 C 201.076 25.951,200.885 25.800,200.814 25.615 C 200.730 25.396,200.381 25.280,199.807 25.280 C 199.233 25.280,198.885 25.163,198.801 24.944 C 198.708 24.702,198.328 24.609,197.434 24.609 C 196.484 24.609,196.197 24.531,196.197 24.273 C 196.197 24.049,195.973 23.937,195.526 23.937 C 195.004 23.937,194.855 23.838,194.855 23.490 C 194.855 23.109,195.004 23.043,195.861 23.043 C 196.607 23.043,196.868 22.956,196.868 22.707 C 196.868 22.483,197.092 22.371,197.539 22.371 C 197.987 22.371,198.210 22.260,198.210 22.036 C 198.210 21.801,198.446 21.700,198.993 21.700 C 199.540 21.700,199.776 21.801,199.776 22.036 " stroke="none" fill="#000000" fill-rule="evenodd"></path></g></svg>