<?xml version="1.0" standalone="yes"?>
<svg xmlns="http://www.w3.org/2000/svg" width="596" height="42">
<path style="fill:#fff; stroke:none;" d="M0 0L0 25C86.9788 25 174.028 26.0363 261 24.9961C267.762 24.9153 274.184 23.0045 281 23C280.442 18.8612 279.27 14.9715 278 11C281.011 12.2279 283.792 13.4294 287 14L288 5C290.597 7.41157 292.587 9.05285 296 10L300 0L0 0z"/>
<path style="fill:#3d3d3d; stroke:none;" d="M300 0C298.45 3.27573 296.996 6.51458 296 10C293.08 8.66677 290.663 6.79676 288 5L287 14L278 11L281 23C273.844 23.0008 267.088 24.9114 260 24.9961C173.362 26.0323 86.6455 25 0 25C5.21648 27.1889 12.3809 26 18 26L55 26L185 26L240 26C248.578 26 258.584 24.5776 267 26.2778C271.087 27.1034 274.303 30.1094 278 31.865C281.143 33.3573 284.711 33.7154 287.715 35.466C291.242 37.5224 295.906 40.8634 300.116 41.2315C302.837 41.4694 306.455 38.9721 309.001 38.0664C312.898 36.68 317.291 35.6594 321 33.875C328.691 30.1749 331.96 26.0041 341 26L596 26C589.322 23.1979 579.216 25 572 25L518 25L333 25L334 23L322 23C323.646 19.1 324.015 15.0881 325 11C321.981 11.5352 319.673 12.4958 317 14L314 5C311.562 6.78966 309.857 8.60507 308 11C305.954 6.88754 303.394 3.10235 300 0z"/>
<path style="fill:#fff; stroke:none;" d="M301 0C302.889 3.97506 305.442 7.42765 308 11L314 5L317 14L325 11L322 23L334 23L333 25L596 25L596 0L301 0M300 3C298.973 6.49945 295.898 10.3556 295.875 13.9992C295.849 18.1033 300.354 21.3844 303.851 18.6235C309.839 13.8956 304.076 6.63062 300 3M289 8C288.222 14.1571 286.879 19.4811 292 24C291.992 20.8309 291.9 18.0408 291 15C296.296 13.8593 291.688 9.74181 289 8M312 8C309.03 13.8566 310.871 18.7343 311 25C316.449 20.207 315.254 14.4889 314 8L312 8M322 13C320.255 13.89 318.875 14.4529 317 15C316.615 19.2501 315.098 22.325 313 26C318.715 24.2977 324.307 19.5047 322 13M281 14C281.581 20.6084 284.136 25.6111 291 27C288.064 22.0714 286.53 16.3258 281 14M308 17C302.337 21.5014 304.185 24.6849 303 31C309.431 28.7468 311.141 22.9176 308 17M294 18C293.638 19.9578 293.108 21.9973 293.198 24.0039C293.583 32.5748 305.19 31.6301 301.238 24.0147C300.7 22.9779 299.747 22.0279 298.916 21.2276C297.419 19.7865 295.814 18.9435 294 18M321 24C323.042 25.416 324.511 25.7451 327 26L324 28C326.587 28.0979 327.356 27.0153 329 25C326.27 24.8826 323.686 24.5008 321 24M271 25C277.453 31.1745 285.231 34.0866 294 32C292.118 30.1181 289.43 33.1433 286 32C282.674 30.8912 277.76 28.2083 275 26L276 25L271 25M279 26C283.203 29.8985 287.414 30.918 293 30C288.818 27.7106 283.748 25.109 279 26M309 30C314.317 31.568 318.15 30.4379 323 28C318.657 24.5734 313.253 27.3106 309 30M0 26L0 42L299 42C295.556 37.0637 286.488 34.8479 281 32.7284C276.506 30.9926 272.757 27.2389 268 26.2778C262.947 25.2569 257.139 26 252 26L220 26L0 26M302 42L596 42L596 26L379 26L348 26C342.973 26 336.861 25.0772 332 26.5131C327.08 27.9665 323.713 32.3926 319 34.3125C313.632 36.4991 305.439 36.9796 302 42M307 31C310.897 36.1193 318.26 33.6554 323 31C317.8 30.0678 312.611 32.3358 307 31M290 34C292.283 37.2718 296.632 37.9269 300 40L310 36C303.863 30.7455 297.241 32.0994 290 34z"/>
</svg>
